<svg width="20" height="20" viewBox="0 0 20 20" fill="none" xmlns="http://www.w3.org/2000/svg">
<g clip-path="url(#clip0_90_399)">
<path d="M8.78695 17.0748C6.6461 19.2296 3.00805 19.9432 0.90918 17.7884C3.70768 14.892 0.90918 13.4927 3.00805 11.3938C3.37659 10.9833 3.82498 10.6522 4.3258 10.4209C4.82663 10.1895 5.36937 10.0627 5.92087 10.0482C6.47237 10.0336 7.02103 10.1317 7.53333 10.3365C8.04564 10.5412 8.51081 10.8482 8.90044 11.2388C9.29007 11.6293 9.59596 12.0953 9.79942 12.6081C10.0029 13.1209 10.0996 13.6698 10.0838 14.2212C10.0679 14.7727 9.93976 15.3151 9.70717 15.8154C9.47457 16.3156 9.14241 16.7632 8.73098 17.1308L8.78695 17.0748Z" stroke="#C6C6BA" stroke-width="1.53917" stroke-linecap="round" stroke-linejoin="round"/>
<path d="M6.77881 10.115L14.2018 1.83705C15.2569 0.650485 17.1612 0.591716 18.2876 1.71111C19.407 2.83751 19.3483 4.74189 18.1617 5.79692L9.9663 13.136" stroke="#C6C6BA" stroke-width="1.53917" stroke-linecap="round" stroke-linejoin="round"/>
</g>
<defs>
<clipPath id="clip0_90_399">
<rect width="20" height="20" fill="white"/>
</clipPath>
</defs>
</svg>
