<svg width="20" height="21" viewBox="0 0 20 21" fill="none" xmlns="http://www.w3.org/2000/svg">
<path d="M17.7442 7.06583C17.9004 7.2221 17.9882 7.43402 17.9882 7.65499C17.9882 7.87596 17.9004 8.08789 17.7442 8.24416L16.4225 9.56583C16.2663 9.72205 16.0543 9.80981 15.8334 9.80981C15.6124 9.80981 15.4005 9.72205 15.2442 9.56583L10.5892 4.91083C10.433 4.75455 10.3452 4.54263 10.3452 4.32166C10.3452 4.10069 10.433 3.88876 10.5892 3.73249L11.9109 2.41083C12.0671 2.2546 12.2791 2.16684 12.5 2.16684C12.721 2.16684 12.9329 2.2546 13.0892 2.41083L17.7442 7.06583Z" stroke="#C6C6BA" stroke-width="1.5" stroke-linecap="round" stroke-linejoin="round"/>
<path d="M10.8332 5.15494L5.10484 6.30078C4.94899 6.33194 4.8053 6.40703 4.69073 6.51718C4.57615 6.62732 4.49546 6.76794 4.45818 6.92244L1.68984 17.4591C1.65628 17.5979 1.65896 17.743 1.69761 17.8805C1.73626 18.018 1.8096 18.1432 1.91058 18.2442C2.01156 18.3452 2.1368 18.4185 2.27428 18.4572C2.41176 18.4958 2.55687 18.4985 2.69568 18.4649L13.2323 15.6966C13.3868 15.6593 13.5275 15.5786 13.6376 15.4641C13.7478 15.3495 13.8228 15.2058 13.854 15.0499L14.9998 9.32161M1.91651 18.2383L7.98818 12.1666" stroke="#C6C6BA" stroke-width="1.5" stroke-linecap="round" stroke-linejoin="round"/>
<path d="M10.8333 10.9882C10.8333 10.0678 10.0871 9.32157 9.16667 9.32157C8.24619 9.32157 7.5 10.0678 7.5 10.9882C7.5 11.9087 8.24619 12.6549 9.16667 12.6549C10.0871 12.6549 10.8333 11.9087 10.8333 10.9882Z" stroke="#C6C6BA" stroke-width="1.5" stroke-linecap="round" stroke-linejoin="round"/>
</svg>
