<svg width="20" height="21" viewBox="0 0 20 21" fill="none" xmlns="http://www.w3.org/2000/svg">
<g clip-path="url(#clip0_83_31685)">
<path d="M12.0718 3.11908C12.2845 3.1789 12.4648 3.32075 12.5729 3.51343C12.681 3.70611 12.7082 3.93385 12.6485 4.14658L8.95684 17.3032C8.92729 17.4086 8.87728 17.5072 8.80965 17.5932C8.74202 17.6793 8.65811 17.7512 8.56269 17.8048C8.46728 17.8584 8.36224 17.8927 8.25357 17.9058C8.1449 17.9188 8.03473 17.9103 7.92934 17.8807C7.82395 17.8512 7.72542 17.8012 7.63936 17.7336C7.55331 17.6659 7.48141 17.582 7.42779 17.4866C7.37416 17.3912 7.33985 17.2861 7.32682 17.1775C7.31379 17.0688 7.32229 16.9586 7.35184 16.8532L11.0435 3.69658C11.073 3.59109 11.1231 3.49247 11.1908 3.40634C11.2584 3.32021 11.3424 3.24827 11.4379 3.19463C11.5335 3.14099 11.6386 3.10671 11.7474 3.09375C11.8561 3.08078 11.9664 3.08939 12.0718 3.11908ZM6.00601 6.37491C6.16223 6.53119 6.25 6.74311 6.25 6.96408C6.25 7.18505 6.16223 7.39697 6.00601 7.55325L3.06017 10.4999L6.00601 13.4457C6.08343 13.5231 6.14486 13.615 6.18678 13.7161C6.22871 13.8172 6.2503 13.9256 6.25034 14.035C6.25038 14.1445 6.22886 14.2529 6.18701 14.354C6.14516 14.4552 6.08379 14.5471 6.00642 14.6245C5.92905 14.7019 5.83719 14.7633 5.73608 14.8053C5.63497 14.8472 5.52659 14.8688 5.41713 14.8688C5.30768 14.8689 5.19928 14.8474 5.09814 14.8055C4.997 14.7636 4.9051 14.7023 4.82767 14.6249L1.29184 11.0891C1.13561 10.9328 1.04785 10.7209 1.04785 10.4999C1.04785 10.2789 1.13561 10.067 1.29184 9.91075L4.82767 6.37491C4.98395 6.21869 5.19587 6.13092 5.41684 6.13092C5.63781 6.13092 5.84973 6.21869 6.00601 6.37491ZM13.9943 7.55325C13.9147 7.47637 13.8513 7.38442 13.8076 7.28275C13.7639 7.18108 13.7409 7.07173 13.74 6.96108C13.739 6.85043 13.7601 6.7407 13.802 6.63828C13.8439 6.53587 13.9058 6.44283 13.984 6.36458C14.0623 6.28634 14.1553 6.22446 14.2577 6.18256C14.3601 6.14066 14.4699 6.11958 14.5805 6.12054C14.6912 6.1215 14.8005 6.14449 14.9022 6.18816C15.0038 6.23184 15.0958 6.29532 15.1727 6.37491L18.7085 9.91075C18.8647 10.067 18.9525 10.2789 18.9525 10.4999C18.9525 10.7209 18.8647 10.9328 18.7085 11.0891L15.1727 14.6249C15.0163 14.7812 14.8043 14.8689 14.5832 14.8688C14.3622 14.8688 14.1502 14.7809 13.9939 14.6245C13.8377 14.4681 13.7499 14.2561 13.75 14.035C13.7501 13.814 13.838 13.602 13.9943 13.4457L16.9402 10.4999L13.9943 7.55325Z" fill="#C6C6BA"/>
</g>
<defs>
<clipPath id="clip0_83_31685">
<rect width="20" height="20" fill="white" transform="translate(0 0.5)"/>
</clipPath>
</defs>
</svg>
