<svg width="72" height="73" viewBox="0 0 72 73" fill="none" xmlns="http://www.w3.org/2000/svg">
<g clip-path="url(#clip0_83_31547)">
<path d="M12.75 0.500006H59.25C60.9248 0.498387 62.5835 0.835526 64.1311 1.49213C65.6787 2.14873 67.0849 3.11191 68.2691 4.32654C69.4534 5.54116 70.3925 6.9834 71.0327 8.57069C71.6729 10.158 72.0016 11.8592 72 13.5769V59.4231C72.0016 61.1408 71.6729 62.842 71.0327 64.4293C70.3925 66.0166 69.4534 67.4588 68.2691 68.6735C67.0849 69.8881 65.6787 70.8513 64.1311 71.5079C62.5835 72.1645 60.9248 72.5016 59.25 72.5H12.75C11.0752 72.5016 9.41654 72.1645 7.86892 71.5079C6.32131 70.8513 4.91513 69.8881 3.73087 68.6735C2.54661 67.4588 1.60751 66.0166 0.967327 64.4293C0.327138 62.842 -0.00157285 61.1408 5.65823e-06 59.4231V13.5769C-0.00157285 11.8592 0.327138 10.158 0.967327 8.57069C1.60751 6.9834 2.54661 5.54116 3.73087 4.32654C4.91513 3.11191 6.32131 2.14873 7.86892 1.49213C9.41654 0.835526 11.0752 0.498387 12.75 0.500006Z" fill="#470137"/>
<path d="M37.4514 22.2824L28.4514 37.1324L38.0514 52.8824C38.1146 52.9911 38.136 53.1191 38.1114 53.2424C38.0814 53.3624 37.9614 53.2724 37.7814 53.3024H30.9114C30.4314 53.3024 30.1014 53.2724 29.8914 52.9724C29.2614 51.7124 28.6014 50.4824 27.9714 49.2224C27.3414 47.9624 26.6514 46.7324 25.9314 45.4424C25.2114 44.1524 24.4914 42.8624 23.7714 41.5424H23.7114C23.0814 42.8324 22.3914 44.1224 21.7014 45.4124C21.0114 46.7024 20.3214 47.9924 19.6614 49.2524C19.0014 50.5124 18.2814 51.8024 17.5914 53.0324C17.4714 53.3324 17.2314 53.3624 16.9014 53.3624H10.3014C10.1814 53.3624 10.0914 53.4224 10.0914 53.2724C10.0781 53.2162 10.0765 53.1579 10.0868 53.1011C10.0971 53.0443 10.1191 52.9902 10.1514 52.9424L19.4814 37.6424L10.3914 22.2524C10.3014 22.1324 10.2714 22.0124 10.3314 21.9524C10.368 21.9096 10.4144 21.8764 10.4667 21.8555C10.5189 21.8346 10.5755 21.8266 10.6314 21.8324H17.4414C17.5833 21.8355 17.7244 21.8556 17.8614 21.8924C17.9816 21.9571 18.0845 22.0497 18.1614 22.1624C18.7314 23.4524 19.3914 24.7424 20.0814 26.0324C20.7714 27.3224 21.4914 28.5824 22.2414 29.8424C22.9914 31.1024 23.6214 32.3624 24.2514 33.6524H24.3114C24.9414 32.3324 25.6014 31.0424 26.2614 29.7824C26.9214 28.5224 27.6114 27.2624 28.3014 26.0024C28.9914 24.7424 29.6514 23.4524 30.3114 22.2224C30.3342 22.1043 30.398 21.998 30.4914 21.9224C30.6102 21.8568 30.7484 21.8356 30.8814 21.8624H37.2114C37.2469 21.8544 37.2836 21.8535 37.3194 21.8598C37.3552 21.8661 37.3894 21.8793 37.4201 21.8988C37.4507 21.9183 37.4772 21.9437 37.4981 21.9735C37.5189 22.0033 37.5336 22.0369 37.5414 22.0724C37.5714 22.1024 37.5114 22.2224 37.4514 22.2824Z" fill="#FF61F6"/>
<path d="M51.3113 53.9324C49.0876 53.9689 46.8838 53.5076 44.8613 52.5824C42.9796 51.7025 41.4026 50.2821 40.3313 48.5024C39.2213 46.6724 38.6813 44.3924 38.6813 41.6624C38.6509 39.4423 39.221 37.2552 40.3313 35.3324C41.4698 33.3782 43.1187 31.7707 45.1013 30.6824C47.2013 29.5124 49.7213 28.9424 52.6913 28.9424C52.9017 28.94 53.1121 28.9501 53.3213 28.9724C53.5913 29.0024 53.8913 29.0024 54.2513 29.0324V19.5524C54.2513 19.3424 54.3413 19.2224 54.5513 19.2224H60.6413C60.7086 19.2133 60.7768 19.2299 60.8324 19.2688C60.888 19.3077 60.9269 19.3661 60.9413 19.4324V48.0524C60.9413 48.5924 60.9713 49.1924 61.0013 49.8524C61.0313 50.5124 61.0913 51.0824 61.1213 51.5924C61.1277 51.6937 61.1022 51.7945 61.0484 51.8806C60.9946 51.9667 60.9152 52.0338 60.8213 52.0724C59.25 52.7328 57.6098 53.2158 55.9313 53.5124C54.4066 53.7874 52.8607 53.9279 51.3113 53.9324ZM54.2513 47.9324V34.7324C53.9842 34.6679 53.7138 34.6179 53.4413 34.5824C53.1113 34.5524 52.7813 34.5224 52.4513 34.5224C51.2754 34.5092 50.1132 34.7766 49.0613 35.3024C48.0362 35.8132 47.1584 36.5774 46.5113 37.5224C45.8513 38.4824 45.5213 39.7724 45.5213 41.3324C45.4952 42.3853 45.6682 43.4337 46.0313 44.4224C46.3215 45.2219 46.7821 45.9488 47.3813 46.5524C47.9597 47.1044 48.6579 47.5151 49.4213 47.7524C50.2249 48.0156 51.0657 48.1473 51.9113 48.1424C52.3613 48.1424 52.7813 48.1124 53.1713 48.0824C53.5379 48.1086 53.9058 48.0575 54.2513 47.9324Z" fill="#FF61F6"/>
</g>
<defs>
<clipPath id="clip0_83_31547">
<rect y="0.5" width="72" height="72" rx="12" fill="white"/>
</clipPath>
</defs>
</svg>
