<svg width="72" height="73" viewBox="0 0 72 73" fill="none" xmlns="http://www.w3.org/2000/svg">
<g clip-path="url(#clip0_83_31417)">
<path d="M59.4 0.5H12.6C5.64121 0.5 0 6.14121 0 13.1V59.9C0 66.8588 5.64121 72.5 12.6 72.5H59.4C66.3588 72.5 72 66.8588 72 59.9V13.1C72 6.14121 66.3588 0.5 59.4 0.5Z" fill="#001E36"/>
<path d="M16.2002 51.5457V21.0806C16.2002 20.8625 16.3094 20.7535 16.5278 20.7535C18.8989 20.6912 21.9095 20.66 25.5597 20.66C29.8651 20.66 33.0161 21.6257 35.0128 23.557C37.0407 25.4884 38.0547 27.8714 38.0547 30.7061C38.0547 34.2261 36.8067 36.8427 34.3109 38.556C31.815 40.2692 28.6795 41.1259 24.9045 41.1259H22.1435V51.499C22.1435 51.7482 22.0187 51.8728 21.7691 51.8728H16.5746C16.325 51.8728 16.2002 51.7638 16.2002 51.5457ZM22.1435 25.1457V36.6402C22.5803 36.7025 23.5942 36.7337 25.1853 36.7337C27.2756 36.7337 28.9603 36.282 30.2395 35.3786C31.5498 34.4441 32.205 32.9333 32.205 30.8462C32.205 29.0084 31.6278 27.591 30.4735 26.5942C29.3503 25.5974 27.7124 25.099 25.5597 25.099C25.0293 25.099 24.499 25.1145 23.9686 25.1457C23.4694 25.1457 23.0482 25.1457 22.7051 25.1457C22.3931 25.1457 22.2059 25.1457 22.1435 25.1457Z" fill="#31A8FE"/>
<path d="M54.3819 34.4908C52.6348 33.4006 50.8097 32.8554 48.9066 32.8554C47.8146 32.8554 47.0035 33.0579 46.4731 33.4629C45.9739 33.8678 45.7243 34.3507 45.7243 34.9114C45.7243 35.4721 45.9427 35.9705 46.3795 36.4066C46.8163 36.8115 47.7366 37.2944 49.1406 37.8551C51.73 38.8519 53.5395 39.911 54.5691 41.0324C55.6298 42.1227 56.1602 43.54 56.1602 45.2845C56.1602 47.4027 55.349 49.116 53.7267 50.4243C52.1356 51.7015 49.9673 52.34 47.2219 52.34C44.4764 52.34 42.2301 51.8416 40.483 50.8448C40.2958 50.7825 40.2022 50.6268 40.2022 50.3776V46.0321C40.2022 45.9075 40.2334 45.8296 40.2958 45.7984C40.3894 45.7361 40.4674 45.7361 40.5298 45.7984C42.5577 47.2937 44.726 48.0413 47.0347 48.0413C48.1266 48.0413 48.9534 47.8544 49.5149 47.4806C50.1077 47.0756 50.4041 46.5616 50.4041 45.9386C50.4041 45.2845 50.1701 44.7393 49.7021 44.3032C49.2342 43.836 48.3138 43.3376 46.9411 42.808C44.4452 41.8423 42.6981 40.8144 41.6997 39.7241C40.7326 38.6027 40.249 37.2009 40.249 35.5188C40.249 33.5875 40.9822 31.9676 42.4485 30.6593C43.9148 29.351 46.0051 28.6968 48.7194 28.6968C51.2465 28.6968 53.1964 29.0395 54.5691 29.7248C54.7251 29.8183 54.8031 30.0207 54.8031 30.3322V34.2105C54.8031 34.5843 54.6627 34.6777 54.3819 34.4908Z" fill="#31A8FE"/>
</g>
<defs>
<clipPath id="clip0_83_31417">
<rect y="0.5" width="72" height="72" rx="12" fill="white"/>
</clipPath>
</defs>
</svg>
