<svg width="72" height="73" viewBox="0 0 72 73" fill="none" xmlns="http://www.w3.org/2000/svg">
<g clip-path="url(#clip0_83_31405)">
<path d="M59.4 0.5H12.6C5.64121 0.5 0 6.14121 0 13.1V59.9C0 66.8588 5.64121 72.5 12.6 72.5H59.4C66.3588 72.5 72 66.8588 72 59.9V13.1C72 6.14121 66.3588 0.5 59.4 0.5Z" fill="#2E0501"/>
<path d="M36.5979 44.4628H25.7644L23.056 52.6841C23.0249 52.9347 22.8536 53.0599 22.5423 53.0599H17.6392C17.3279 53.0599 17.219 52.9033 17.3124 52.5902L27.0252 24.6848C27.2431 24.215 27.3832 23.3381 27.4454 22.054C27.4454 21.8661 27.5544 21.7721 27.7723 21.7721H34.4966C34.6522 21.7721 34.7767 21.8504 34.8701 22.007L45.7036 52.6371C45.797 52.919 45.7036 53.0599 45.4235 53.0599H39.9133C39.6954 53.0599 39.5397 52.9503 39.4464 52.7311L36.5979 44.4628ZM26.9785 39.9059H35.3838C35.2593 39.4674 34.6055 37.4787 33.4225 33.9396C32.2707 30.3692 31.508 27.9263 31.1344 26.6109H31.0877C30.7142 28.2082 29.3444 32.6399 26.9785 39.9059Z" fill="#F2A032"/>
<path d="M48.6028 52.6371V30.5571C48.6028 30.3066 48.7273 30.1813 48.9764 30.1813H54.1597C54.4087 30.1813 54.5332 30.3066 54.5332 30.5571V52.6841C54.5332 52.9347 54.4087 53.0599 54.1597 53.0599H49.0231C48.7429 53.0599 48.6028 52.919 48.6028 52.6371ZM53.8795 25.4365C53.3191 26.0002 52.5564 26.2821 51.5914 26.2821C50.6263 26.2821 49.8636 26.0002 49.3033 25.4365C48.7429 24.8727 48.4627 24.1054 48.4627 23.1345C48.4627 22.1949 48.7585 21.4276 49.35 20.8325C49.9414 20.2375 50.7042 19.9399 51.6381 19.9399C52.572 19.9399 53.3191 20.2375 53.8795 20.8325C54.4398 21.4276 54.72 22.1949 54.72 23.1345C54.72 24.1054 54.4398 24.8727 53.8795 25.4365Z" fill="#F2A032"/>
</g>
<defs>
<clipPath id="clip0_83_31405">
<rect y="0.5" width="72" height="72" rx="12" fill="white"/>
</clipPath>
</defs>
</svg>
