<svg width="146" height="146" viewBox="0 0 146 146" fill="none" xmlns="http://www.w3.org/2000/svg">
<rect width="146" height="146" rx="73" fill="white"/>
<path d="M70.6562 57.1629C78.7915 57.1629 85.3865 50.5661 85.3865 42.4285C85.3865 34.291 78.7915 27.6942 70.6562 27.6942C62.521 27.6942 55.926 34.291 55.926 42.4285C55.926 50.5661 62.521 57.1629 70.6562 57.1629Z" fill="#7B83EB"/>
<path opacity="0.1" d="M69.6051 45.5857H56.2637L56.33 45.8793L56.3363 45.9046L56.4057 46.1761C57.3751 49.8532 59.7272 53.0136 62.9707 54.9974C66.2142 56.9811 70.0985 57.6348 73.8124 56.822V49.7942C73.8091 48.679 73.3648 47.6105 72.5765 46.822C71.7882 46.0335 70.72 45.589 69.6051 45.5857Z" fill="black"/>
<path opacity="0.2" d="M66.4488 48.7428H57.3462C58.5408 51.2623 60.4257 53.3909 62.7818 54.8814C65.1378 56.3719 67.8684 57.1631 70.6561 57.1629V52.9513C70.6528 51.8361 70.2084 50.7676 69.4201 49.9791C68.6318 49.1906 67.5636 48.7461 66.4488 48.7428Z" fill="black"/>
<path d="M103.797 58.2143C109.898 58.2143 114.844 53.267 114.844 47.1643C114.844 41.0615 109.898 36.1143 103.797 36.1143C97.6959 36.1143 92.75 41.0615 92.75 47.1643C92.75 53.267 97.6959 58.2143 103.797 58.2143Z" fill="#5059C9"/>
<path d="M113.266 61.3714H88.4544C87.9187 61.3714 87.4049 61.5843 87.026 61.9632C86.6472 62.3421 86.4344 62.8561 86.4344 63.392V88.9964C86.366 92.7021 87.5725 96.3188 89.8519 99.2408C92.1313 102.163 95.3451 104.213 98.9552 105.047C101.255 105.53 103.632 105.494 105.916 104.941C108.199 104.388 110.331 103.333 112.155 101.852C113.98 100.372 115.451 98.5026 116.462 96.3813C117.473 94.2601 117.998 91.94 118 89.59V66.1071C118 64.8511 117.501 63.6466 116.613 62.7585C115.726 61.8703 114.521 61.3714 113.266 61.3714Z" fill="#5059C9"/>
<path d="M95.9062 66.1071V96.1C95.9093 101.658 94.0782 107.062 90.697 111.473C87.3158 115.884 82.5737 119.055 77.2065 120.494C71.8393 121.934 66.1472 121.561 61.0136 119.433C55.88 117.306 51.592 113.543 48.815 108.729C48.2076 107.719 47.68 106.663 47.2369 105.571C46.8238 104.542 46.4759 103.487 46.1953 102.414C45.675 100.35 45.41 98.2291 45.4063 96.1V66.1071C45.4054 65.485 45.5273 64.8688 45.7649 64.2939C46.0026 63.7189 46.3513 63.1965 46.7911 62.7566C47.2309 62.3167 47.7531 61.9679 48.3279 61.7302C48.9027 61.4925 49.5187 61.3706 50.1406 61.3714H91.1719C91.7938 61.3706 92.4098 61.4925 92.9846 61.7302C93.5594 61.9679 94.0816 62.3167 94.5214 62.7566C94.9612 63.1965 95.3099 63.7189 95.5475 64.2939C95.7852 64.8688 95.9071 65.485 95.9062 66.1071Z" fill="#7B83EB"/>
<path opacity="0.2" d="M66.4488 48.7428H57.3462C58.5408 51.2623 60.4257 53.3909 62.7818 54.8814C65.1378 56.3719 67.8684 57.1631 70.6561 57.1629V52.9513C70.6528 51.8361 70.2084 50.7676 69.4201 49.9791C68.6318 49.1906 67.5636 48.7461 66.4488 48.7428Z" fill="black"/>
<path opacity="0.1" d="M73.8125 61.3714V101.372C73.8125 102.324 73.4869 103.247 72.8897 103.988C72.2925 104.729 71.4598 105.243 70.53 105.445C70.2331 105.534 69.9244 105.576 69.6147 105.571H47.2369C46.8238 104.542 46.4759 103.488 46.1953 102.414C45.675 100.35 45.41 98.2291 45.4063 96.1V66.1071C45.4054 65.485 45.5273 64.8688 45.7649 64.2939C46.0026 63.7189 46.3513 63.1965 46.7911 62.7566C47.2309 62.3167 47.7531 61.9679 48.3279 61.7302C48.9027 61.4925 49.5187 61.3706 50.1406 61.3714H73.8125Z" fill="black"/>
<path opacity="0.2" d="M70.6562 61.3714V104.53C70.6609 104.839 70.6183 105.148 70.53 105.445C70.3282 106.375 69.8142 107.208 69.0734 107.806C68.3327 108.403 67.4099 108.729 66.4584 108.729H48.815C48.2076 107.719 47.68 106.663 47.2369 105.571C46.8238 104.542 46.4759 103.488 46.1953 102.414C45.675 100.35 45.41 98.2291 45.4063 96.1V66.1071C45.4054 65.485 45.5273 64.8688 45.7649 64.2939C46.0026 63.7189 46.3513 63.1965 46.7911 62.7566C47.2309 62.3167 47.7531 61.9679 48.3279 61.7302C48.9027 61.4925 49.5187 61.3706 50.1406 61.3714H70.6562Z" fill="black"/>
<path opacity="0.2" d="M70.6562 61.3714V98.2153C70.6513 99.3274 70.2074 100.393 69.4212 101.179C68.6351 101.965 67.5702 102.409 66.4584 102.414H46.1953C45.675 100.35 45.41 98.2291 45.4063 96.1V66.1071C45.4054 65.485 45.5273 64.8688 45.7649 64.2939C46.0026 63.7189 46.3513 63.1965 46.7911 62.7566C47.2309 62.3167 47.7531 61.9679 48.3279 61.7302C48.9027 61.4925 49.5187 61.3706 50.1406 61.3714H70.6562Z" fill="black"/>
<path opacity="0.2" d="M50.1406 61.3714C49.5187 61.3706 48.9027 61.4925 48.3279 61.7302C47.7531 61.9679 47.2309 62.3167 46.7911 62.7566C46.3513 63.1965 46.0026 63.7189 45.7649 64.2939C45.5273 64.8688 45.4054 65.485 45.4063 66.1071V96.1C45.41 98.2291 45.675 100.35 46.1953 102.414H63.3022C64.414 102.409 65.4788 101.965 66.265 101.179C67.0511 100.393 67.495 99.3274 67.5 98.2153V61.3714H50.1406Z" fill="black"/>
<path d="M21.2073 48.7428H63.2927C64.4085 48.7428 65.4787 49.1862 66.2677 49.9754C67.0567 50.7647 67.5 51.8351 67.5 52.9513V95.0486C67.5 96.1648 67.0567 97.2352 66.2677 98.0245C65.4787 98.8137 64.4085 99.2571 63.2927 99.2571H21.2073C20.0914 99.2571 19.0213 98.8137 18.2323 98.0245C17.4433 97.2352 17 96.1648 17 95.0486V52.9513C17 51.8351 17.4433 50.7647 18.2323 49.9754C19.0213 49.1862 20.0914 48.7428 21.2073 48.7428Z" fill="#4B53BC"/>
<path d="M54.8117 64.4496H45.3745V89.7699H39.182V64.4496H29.688V58.23H54.8117V64.4496Z" fill="white"/>
</svg>
