<svg width="72" height="73" viewBox="0 0 72 73" fill="none" xmlns="http://www.w3.org/2000/svg">
<g clip-path="url(#clip0_83_31515)">
<path d="M12.75 0.500006H59.25C60.9248 0.498387 62.5835 0.835526 64.1311 1.49213C65.6787 2.14873 67.0849 3.11191 68.2691 4.32654C69.4534 5.54116 70.3925 6.9834 71.0327 8.57069C71.6729 10.158 72.0016 11.8592 72 13.5769V59.4231C72.0016 61.1408 71.6729 62.842 71.0327 64.4293C70.3925 66.0166 69.4534 67.4588 68.2691 68.6735C67.0849 69.8881 65.6787 70.8513 64.1311 71.5079C62.5835 72.1645 60.9248 72.5016 59.25 72.5H12.75C11.0752 72.5016 9.41654 72.1645 7.86892 71.5079C6.32131 70.8513 4.91513 69.8881 3.73087 68.6735C2.54661 67.4588 1.60751 66.0166 0.967327 64.4293C0.327138 62.842 -0.00157285 61.1408 5.65823e-06 59.4231V13.5769C-0.00157285 11.8592 0.327138 10.158 0.967327 8.57069C1.60751 6.9834 2.54661 5.54116 3.73087 4.32654C4.91513 3.11191 6.32131 2.14873 7.86892 1.49213C9.41654 0.835526 11.0752 0.498387 12.75 0.500006Z" fill="#000B1D"/>
<path d="M29.1001 58.46C33.2422 58.46 36.6001 55.1021 36.6001 50.96V43.46H29.1001C24.958 43.46 21.6001 46.8178 21.6001 50.96C21.6001 55.1021 24.958 58.46 29.1001 58.46Z" fill="#0ACF83"/>
<path d="M21.6001 35.96C21.6001 31.8178 24.958 28.46 29.1001 28.46H36.6001V43.46H29.1001C24.958 43.46 21.6001 40.1021 21.6001 35.96Z" fill="#A259FF"/>
<path d="M21.6001 20.96C21.6001 16.8178 24.958 13.46 29.1001 13.46H36.6001V28.46H29.1001C24.958 28.46 21.6001 25.1021 21.6001 20.96Z" fill="#F24E1E"/>
<path d="M36.6001 13.46H44.1001C48.2422 13.46 51.6001 16.8178 51.6001 20.96C51.6001 25.1021 48.2422 28.46 44.1001 28.46H36.6001V13.46Z" fill="#FF7262"/>
<path d="M51.6001 35.96C51.6001 40.1021 48.2422 43.46 44.1001 43.46C39.958 43.46 36.6001 40.1021 36.6001 35.96C36.6001 31.8178 39.958 28.46 44.1001 28.46C48.2422 28.46 51.6001 31.8178 51.6001 35.96Z" fill="#1ABCFE"/>
</g>
<defs>
<clipPath id="clip0_83_31515">
<rect y="0.5" width="72" height="72" rx="12" fill="white"/>
</clipPath>
</defs>
</svg>
