<svg width="72" height="73" viewBox="0 0 72 73" fill="none" xmlns="http://www.w3.org/2000/svg">
<g clip-path="url(#clip0_83_31509)">
<path d="M59.4 0.5H12.6C5.64121 0.5 0 6.14121 0 13.1V59.9C0 66.8588 5.64121 72.5 12.6 72.5H59.4C66.3588 72.5 72 66.8588 72 59.9V13.1C72 6.14121 66.3588 0.5 59.4 0.5Z" fill="#000058"/>
<path d="M17.6399 51.6526V21.4409C17.6399 21.2227 17.7338 21.1136 17.9217 21.1136C19.9256 21.0512 22.7436 21.02 26.3757 21.02C30.5088 21.02 33.546 21.971 35.4873 23.8728C37.4599 25.7435 38.4462 28.0975 38.4462 30.9347C38.4462 34.3643 37.2407 36.9521 34.8298 38.6981C32.4501 40.4129 29.4286 41.2703 25.7652 41.2703C25.3268 41.2703 24.8102 41.2703 24.2153 41.2703C23.6516 41.2391 23.3542 41.2235 23.3229 41.2235V51.6526C23.3229 51.8709 23.1976 51.98 22.9471 51.98H17.9687C17.7495 51.98 17.6399 51.8709 17.6399 51.6526ZM23.3229 25.3694V36.8742C23.7612 36.9365 24.6693 36.9677 26.047 36.9677C28.0196 36.9677 29.6321 36.5156 30.8845 35.6114C32.137 34.6761 32.7632 33.1484 32.7632 31.0282C32.7632 29.2199 32.1996 27.8169 31.0724 26.8192C29.9765 25.7903 28.411 25.2759 26.3757 25.2759C24.7162 25.2759 23.6986 25.307 23.3229 25.3694Z" fill="#9999F9"/>
<path d="M41.444 29.2043H45.8589C46.1094 29.2043 46.2816 29.329 46.3755 29.5784C46.626 30.202 46.7826 31.1062 46.8452 32.291C48.6612 29.9526 51.0566 28.7834 54.0311 28.7834C54.2503 28.7834 54.3599 28.8925 54.3599 29.1108V33.8343C54.3599 34.0837 54.2346 34.1928 53.9842 34.1617C51.2601 34.0058 49.1153 34.7073 47.5497 36.2662C47.2679 36.5468 47.127 36.9209 47.127 37.3886V51.6526C47.127 51.8709 47.0018 51.98 46.7513 51.98H41.8197C41.5379 51.98 41.397 51.8553 41.397 51.6059V35.7985C41.397 33.2731 41.3188 31.1841 41.1622 29.5317C41.1309 29.3134 41.2248 29.2043 41.444 29.2043Z" fill="#9999F9"/>
</g>
<defs>
<clipPath id="clip0_83_31509">
<rect y="0.5" width="72" height="72" rx="12" fill="white"/>
</clipPath>
</defs>
</svg>
