<svg width="72" height="73" viewBox="0 0 72 73" fill="none" xmlns="http://www.w3.org/2000/svg">
<g clip-path="url(#clip0_83_31411)">
<path d="M59.4 0.5H12.6C5.64121 0.5 0 6.14121 0 13.1V59.9C0 66.8588 5.64121 72.5 12.6 72.5H59.4C66.3588 72.5 72 66.8588 72 59.9V13.1C72 6.14121 66.3588 0.5 59.4 0.5Z" fill="#430C1F"/>
<path d="M26.5901 22.439V52.5763C26.5901 52.8575 26.4642 52.9981 26.2125 52.9981H21.2574C21.0057 52.9981 20.8799 52.8575 20.8799 52.5763V22.439C20.8799 22.189 21.0057 22.0641 21.2574 22.0641H26.2597C26.48 22.0641 26.5901 22.189 26.5901 22.439Z" fill="#EC4E68"/>
<path d="M41.958 53.42C38.4343 53.42 35.6185 52.4357 33.5107 50.4672C31.4028 48.4986 30.3488 45.5927 30.3488 41.7494C30.3488 38.2498 31.4814 35.3751 33.7466 33.1253C36.0118 30.8756 39.0321 29.7507 42.8074 29.7507C43.7512 29.7507 44.5692 29.8288 45.2614 29.9851V19.8612C45.2614 19.6737 45.3558 19.58 45.5445 19.58H50.7356C50.8929 19.58 50.9716 19.6737 50.9716 19.8612V47.9362C50.9716 49.1236 51.0188 50.1547 51.1131 51.0296C51.1446 51.2171 51.066 51.3577 50.8772 51.4514C48.1401 52.7638 45.167 53.42 41.958 53.42ZM45.2614 48.7798V34.2971C44.6322 33.9534 43.7827 33.7815 42.713 33.7815C40.7939 33.7815 39.2366 34.4533 38.0411 35.7969C36.8455 37.1405 36.2478 39.0465 36.2478 41.515C36.2478 44.1397 36.8298 46.077 37.9939 47.3269C39.1894 48.5767 40.6995 49.2017 42.5243 49.2017C43.6569 49.2017 44.5692 49.0611 45.2614 48.7798Z" fill="#EC4E68"/>
</g>
<defs>
<clipPath id="clip0_83_31411">
<rect y="0.5" width="72" height="72" rx="12" fill="white"/>
</clipPath>
</defs>
</svg>
