<svg width="72" height="73" viewBox="0 0 72 73" fill="none" xmlns="http://www.w3.org/2000/svg">
<g clip-path="url(#clip0_83_31536)">
<path d="M12.75 0.500006H59.25C60.9248 0.498387 62.5835 0.835526 64.1311 1.49213C65.6787 2.14873 67.0849 3.11191 68.2691 4.32654C69.4534 5.54116 70.3925 6.9834 71.0327 8.57069C71.6729 10.158 72.0016 11.8592 72 13.5769V59.4231C72.0016 61.1408 71.6729 62.842 71.0327 64.4293C70.3925 66.0166 69.4534 67.4588 68.2691 68.6735C67.0849 69.8881 65.6787 70.8513 64.1311 71.5079C62.5835 72.1645 60.9248 72.5016 59.25 72.5H12.75C11.0752 72.5016 9.41654 72.1645 7.86892 71.5079C6.32131 70.8513 4.91513 69.8881 3.73087 68.6735C2.54661 67.4588 1.60751 66.0166 0.967327 64.4293C0.327138 62.842 -0.00157285 61.1408 5.65823e-06 59.4231V13.5769C-0.00157285 11.8592 0.327138 10.158 0.967327 8.57069C1.60751 6.9834 2.54661 5.54116 3.73087 4.32654C4.91513 3.11191 6.32131 2.14873 7.86892 1.49213C9.41654 0.835526 11.0752 0.498387 12.75 0.500006Z" fill="#000B1D"/>
<path d="M59.2017 16.9228L48.9124 11.9687C47.7213 11.3952 46.298 11.6371 45.3633 12.5718L11.6798 43.2833C10.7738 44.1093 10.7748 45.5357 11.6821 46.3605L14.4334 48.8617C15.1751 49.536 16.2921 49.5856 17.0906 48.9798L57.6534 18.208C59.0143 17.1757 60.9688 18.1463 60.9688 19.8544V19.7349C60.9688 18.5359 60.282 17.443 59.2017 16.9228Z" fill="#0065A9"/>
<g filter="url(#filter0_d_83_31536)">
<path d="M59.2017 56.0772L48.9124 61.0313C47.7213 61.6049 46.298 61.3629 45.3633 60.4282L11.6798 29.7168C10.7738 28.8907 10.7748 27.4643 11.6821 26.6396L14.4334 24.1383C15.1751 23.464 16.2921 23.4144 17.0906 24.0202L57.6534 54.792C59.0143 55.8243 60.9688 54.8537 60.9688 53.1457V53.2651C60.9688 54.4641 60.282 55.5571 59.2017 56.0772Z" fill="#007ACC"/>
</g>
<g filter="url(#filter1_d_83_31536)">
<path d="M48.9127 61.0324C47.7214 61.6055 46.2981 61.3631 45.3633 60.4283C46.515 61.58 48.4844 60.7643 48.4844 59.1355V13.8643C48.4844 12.2355 46.515 11.4198 45.3633 12.5715C46.2981 11.6368 47.7214 11.3945 48.9127 11.9675L59.2003 16.9148C60.2813 17.4347 60.9687 18.528 60.9687 19.7275V53.2725C60.9687 54.472 60.2813 55.5654 59.2003 56.0852L48.9127 61.0324Z" fill="#1F9CF0"/>
</g>
<g style="mix-blend-mode:overlay" opacity="0.25">
<path style="mix-blend-mode:overlay" fill-rule="evenodd" clip-rule="evenodd" d="M46.4126 61.1276C47.1991 61.434 48.096 61.4144 48.8898 61.0324L59.1711 56.0852C60.2514 55.5654 60.9384 54.472 60.9384 53.2725V19.7276C60.9384 18.528 60.2515 17.4346 59.1711 16.9148L48.8898 11.9675C47.848 11.4662 46.6287 11.5889 45.7143 12.2537C45.5837 12.3487 45.4592 12.4547 45.3425 12.5715L25.6602 30.5281L17.0869 24.0203C16.2889 23.4145 15.1726 23.4642 14.4313 24.1384L11.6816 26.6397C10.775 27.4644 10.7739 28.8908 11.6794 29.7168L19.1144 36.4999L11.6794 43.283C10.7739 44.1091 10.775 45.5354 11.6816 46.3602L14.4313 48.8614C15.1726 49.5357 16.2889 49.5853 17.0869 48.9795L25.6602 42.4717L45.3425 60.4283C45.6538 60.7398 46.0194 60.9745 46.4126 61.1276ZM48.4617 25.1635L33.5273 36.4999L48.4617 47.8363V25.1635Z" fill="url(#paint0_linear_83_31536)"/>
</g>
</g>
<defs>
<filter id="filter0_d_83_31536" x="2.66764" y="15.2638" width="66.6345" height="54.4089" filterUnits="userSpaceOnUse" color-interpolation-filters="sRGB">
<feFlood flood-opacity="0" result="BackgroundImageFix"/>
<feColorMatrix in="SourceAlpha" type="matrix" values="0 0 0 0 0 0 0 0 0 0 0 0 0 0 0 0 0 0 127 0" result="hardAlpha"/>
<feOffset/>
<feGaussianBlur stdDeviation="4.16667"/>
<feColorMatrix type="matrix" values="0 0 0 0 0 0 0 0 0 0 0 0 0 0 0 0 0 0 0.25 0"/>
<feBlend mode="overlay" in2="BackgroundImageFix" result="effect1_dropShadow_83_31536"/>
<feBlend mode="normal" in="SourceGraphic" in2="effect1_dropShadow_83_31536" result="shape"/>
</filter>
<filter id="filter1_d_83_31536" x="37.0299" y="3.32657" width="32.2721" height="66.3469" filterUnits="userSpaceOnUse" color-interpolation-filters="sRGB">
<feFlood flood-opacity="0" result="BackgroundImageFix"/>
<feColorMatrix in="SourceAlpha" type="matrix" values="0 0 0 0 0 0 0 0 0 0 0 0 0 0 0 0 0 0 127 0" result="hardAlpha"/>
<feOffset/>
<feGaussianBlur stdDeviation="4.16667"/>
<feColorMatrix type="matrix" values="0 0 0 0 0 0 0 0 0 0 0 0 0 0 0 0 0 0 0.25 0"/>
<feBlend mode="overlay" in2="BackgroundImageFix" result="effect1_dropShadow_83_31536"/>
<feBlend mode="normal" in="SourceGraphic" in2="effect1_dropShadow_83_31536" result="shape"/>
</filter>
<linearGradient id="paint0_linear_83_31536" x1="35.9697" y1="11.6599" x2="35.9697" y2="61.34" gradientUnits="userSpaceOnUse">
<stop stop-color="white"/>
<stop offset="1" stop-color="white" stop-opacity="0"/>
</linearGradient>
<clipPath id="clip0_83_31536">
<rect y="0.5" width="72" height="72" rx="12" fill="white"/>
</clipPath>
</defs>
</svg>
